<svg
  xmlns="http://www.w3.org/2000/svg"
  width="24"
  height="24"
  viewBox="0 0 24 24"
  fill="none"
  stroke="currentColor"
  stroke-width="2"
  stroke-linecap="round"
  stroke-linejoin="round"
>
  <path d="M12 19 2 22l3-10" />
  <path d="M14 10V9a2 2 0 0 1 2-2 2 2 0 0 0 2-2 2.5 2.5 0 0 1 1.8-2.4L22 2" />
  <path d="M14 2h.01" />
  <path d="M17 15h1a1 1 0 0 0 1-1 1 1 0 0 1 1-1h2" />
  <path d="M21 19h.01" />
  <path d="M22 8h.01" />
  <path d="M3 3h.01" />
  <path d="M6 11a2.646 1 45 0 1 6 8 2.646 1 45 0 1-6-8" />
  <path d="M8 7V6a1 1 0 0 1 1-1 1 1 0 0 0 1-1V2" />
</svg>
